<?xml version="1.0" standalone="no"?>
<!DOCTYPE svg PUBLIC "-//W3C//DTD SVG 20010904//EN"
 "http://www.w3.org/TR/2001/REC-SVG-20010904/DTD/svg10.dtd">
<svg version="1.0" xmlns="http://www.w3.org/2000/svg"
 width="300.000000pt" height="300.000000pt" viewBox="0 0 300.000000 300.000000"
 preserveAspectRatio="xMidYMid meet">
<metadata>
Created by potrace 1.11, written by Peter Selinger 2001-2013
</metadata>
<g transform="translate(0.000000,300.000000) scale(0.100000,-0.100000)"
fill="#000000" stroke="none">
<path d="M880 2976 c-378 -101 -635 -337 -721 -661 -29 -108 -31 -308 -5 -410
40 -153 112 -271 238 -391 138 -131 308 -226 598 -335 393 -147 510 -247 510
-438 0 -59 -5 -79 -32 -132 -18 -34 -50 -75 -70 -92 l-37 -29 -73 17 c-94 23
-259 80 -320 111 -26 13 -51 24 -56 24 -7 0 -34 -98 -46 -163 -10 -56 -15 -59
-74 -52 -135 16 -395 95 -514 156 -22 11 -42 19 -44 17 -2 -3 -33 -126 -69
-274 -36 -148 -68 -276 -70 -285 -12 -38 10 -39 1127 -39 l1081 0 89 47 c50
26 101 58 115 70 13 13 28 23 32 23 16 0 157 147 194 203 135 203 176 419 133
691 -4 21 -9 43 -12 48 -3 4 -7 20 -10 33 -8 43 -50 130 -95 197 -82 121 -235
250 -389 328 -36 18 -81 40 -100 50 -34 18 -186 80 -205 84 -5 2 -21 8 -35 14
-88 38 -267 113 -275 115 -5 1 -12 5 -15 8 -3 3 -27 18 -55 34 -27 16 -62 41
-76 56 -15 15 -30 25 -35 21 -4 -4 -4 -2 0 5 3 6 1 15 -5 19 -26 15 -49 90
-49 158 0 81 21 134 74 185 l34 33 89 -25 c48 -14 119 -39 158 -55 38 -17 71
-29 73 -27 2 2 14 43 28 91 13 48 28 92 34 98 20 20 279 -21 417 -67 71 -23
134 -41 140 -40 7 0 11 -3 8 -7 -5 -8 33 -25 40 -18 4 3 71 239 79 278 3 14
21 79 40 145 19 66 32 123 27 128 -4 4 -51 23 -105 42 l-97 35 -792 0 -792 -1
-85 -23z"/>
</g>
</svg>
